<svg width="55" height="28" viewBox="0 0 55 28" fill="none" xmlns="http://www.w3.org/2000/svg">
<path d="M1.272 12V3.84H3.672C4.456 3.84 5.032 4.032 5.4 4.416C5.776 4.792 5.964 5.3 5.964 5.94V6.204C5.964 6.556 5.884 6.868 5.724 7.14C5.564 7.412 5.332 7.628 5.028 7.788C5.452 7.924 5.772 8.148 5.988 8.46C6.212 8.764 6.324 9.132 6.324 9.564V9.828C6.324 10.484 6.132 11.012 5.748 11.412C5.372 11.804 4.78 12 3.972 12H1.272ZM3.672 4.8H2.316V7.38H3.672C4.072 7.38 4.372 7.28 4.572 7.08C4.78 6.872 4.884 6.588 4.884 6.228V5.94C4.884 5.588 4.78 5.312 4.572 5.112C4.372 4.904 4.072 4.8 3.672 4.8ZM3.972 8.34H2.316V11.052H3.972C4.396 11.052 4.712 10.944 4.92 10.728C5.136 10.512 5.244 10.212 5.244 9.828V9.54C5.244 9.172 5.136 8.88 4.92 8.664C4.712 8.448 4.396 8.34 3.972 8.34ZM13.8475 7.02V8.808C13.8475 9.824 13.5915 10.632 13.0795 11.232C12.5755 11.824 11.8475 12.12 10.8955 12.12C9.94353 12.12 9.21153 11.824 8.69953 11.232C8.19553 10.632 7.94353 9.824 7.94353 8.808V7.02C7.94353 6.012 8.19553 5.212 8.69953 4.62C9.21153 4.02 9.94353 3.72 10.8955 3.72C11.8475 3.72 12.5755 4.02 13.0795 4.62C13.5915 5.212 13.8475 6.012 13.8475 7.02ZM12.7675 7.02C12.7675 6.276 12.6075 5.704 12.2875 5.304C11.9755 4.896 11.5115 4.692 10.8955 4.692C10.2875 4.692 9.82353 4.896 9.50353 5.304C9.18353 5.704 9.02353 6.276 9.02353 7.02V8.808C9.02353 9.56 9.18353 10.14 9.50353 10.548C9.82353 10.956 10.2875 11.16 10.8955 11.16C11.5115 11.16 11.9755 10.956 12.2875 10.548C12.6075 10.14 12.7675 9.56 12.7675 8.808V7.02ZM21.6171 7.02V8.808C21.6171 9.824 21.3611 10.632 20.8491 11.232C20.3451 11.824 19.6171 12.12 18.6651 12.12C17.7131 12.12 16.9811 11.824 16.4691 11.232C15.9651 10.632 15.7131 9.824 15.7131 8.808V7.02C15.7131 6.012 15.9651 5.212 16.4691 4.62C16.9811 4.02 17.7131 3.72 18.6651 3.72C19.6171 3.72 20.3451 4.02 20.8491 4.62C21.3611 5.212 21.6171 6.012 21.6171 7.02ZM20.5371 7.02C20.5371 6.276 20.3771 5.704 20.0571 5.304C19.7451 4.896 19.2811 4.692 18.6651 4.692C18.0571 4.692 17.5931 4.896 17.2731 5.304C16.9531 5.704 16.7931 6.276 16.7931 7.02V8.808C16.7931 9.56 16.9531 10.14 17.2731 10.548C17.5931 10.956 18.0571 11.16 18.6651 11.16C19.2811 11.16 19.7451 10.956 20.0571 10.548C20.3771 10.14 20.5371 9.56 20.5371 8.808V7.02ZM28.2826 12L25.9546 8.148C25.7866 8.324 25.6106 8.504 25.4266 8.688C25.2506 8.872 25.0666 9.056 24.8746 9.24V12H23.8306V3.84H24.8746V8.076C25.6266 7.316 26.2546 6.596 26.7586 5.916C27.2626 5.236 27.6906 4.544 28.0426 3.84H29.1706C28.8106 4.544 28.4346 5.184 28.0426 5.76C27.6586 6.328 27.2186 6.896 26.7226 7.464L29.5546 12H28.2826ZM34.987 8.568H32.023V12H30.979V3.84H35.347V4.824H32.023V7.584H34.987V8.568ZM40.9709 12L40.3589 10.104H37.2629L36.6509 12H35.6309L38.3429 3.84H39.3269L42.0509 12H40.9709ZM38.0189 7.752L37.5629 9.156H40.0469L39.5909 7.752L38.8109 5.232L38.0189 7.752ZM45.2447 11.184C45.7487 11.184 46.1367 11.076 46.4087 10.86C46.6807 10.636 46.8167 10.312 46.8167 9.888C46.8167 9.536 46.7207 9.24 46.5287 9C46.3447 8.76 46.0407 8.576 45.6167 8.448L44.6447 8.16C44.0367 7.976 43.5887 7.7 43.3007 7.332C43.0127 6.956 42.8687 6.496 42.8687 5.952C42.8687 5.536 42.9487 5.16 43.1087 4.824C43.2767 4.488 43.5407 4.22 43.9007 4.02C44.2687 3.82 44.7487 3.72 45.3407 3.72C45.7007 3.72 46.0727 3.764 46.4567 3.852C46.8407 3.932 47.2287 4.064 47.6207 4.248L47.2847 5.148C46.9007 4.98 46.5527 4.86 46.2407 4.788C45.9367 4.708 45.6447 4.668 45.3647 4.668C44.9087 4.668 44.5527 4.764 44.2967 4.956C44.0487 5.14 43.9247 5.448 43.9247 5.88C43.9247 6.192 44.0087 6.456 44.1767 6.672C44.3447 6.88 44.6447 7.052 45.0767 7.188L46.0487 7.476C47.2647 7.836 47.8727 8.612 47.8727 9.804C47.8727 10.492 47.6647 11.052 47.2487 11.484C46.8327 11.908 46.1647 12.12 45.2447 12.12C44.8687 12.12 44.4687 12.076 44.0447 11.988C43.6287 11.892 43.1967 11.744 42.7487 11.544L43.0727 10.656C43.4967 10.848 43.8767 10.984 44.2127 11.064C44.5567 11.144 44.9007 11.184 45.2447 11.184ZM48.531 4.824V3.84H54.327V4.824H51.951V12H50.907V4.824H48.531ZM1.98 22.82C1.98 23.572 2.128 24.152 2.424 24.56C2.728 24.96 3.192 25.16 3.816 25.16C4.088 25.16 4.356 25.128 4.62 25.064C4.884 25 5.2 24.888 5.568 24.728L5.916 25.616C5.524 25.792 5.152 25.92 4.8 26C4.448 26.08 4.108 26.12 3.78 26.12C2.836 26.12 2.12 25.824 1.632 25.232C1.144 24.64 0.9 23.836 0.9 22.82V21.02C0.9 20.004 1.144 19.2 1.632 18.608C2.12 18.016 2.836 17.72 3.78 17.72C4.108 17.72 4.448 17.76 4.8 17.84C5.16 17.92 5.524 18.048 5.892 18.224L5.556 19.124C4.908 18.836 4.328 18.692 3.816 18.692C3.192 18.692 2.728 18.892 2.424 19.292C2.128 19.692 1.98 20.268 1.98 21.02V22.82ZM12.0876 25.028V26H7.62356V17.84H8.66756V25.028H12.0876ZM13.2563 17.84H14.3363V23.072C14.3363 23.728 14.4723 24.24 14.7443 24.608C15.0243 24.976 15.4563 25.16 16.0403 25.16C16.6323 25.16 17.0643 24.976 17.3363 24.608C17.6083 24.24 17.7443 23.728 17.7443 23.072V17.84H18.8243V23.072C18.8243 24.024 18.5923 24.772 18.1283 25.316C17.6643 25.852 16.9683 26.12 16.0403 26.12C15.1043 26.12 14.4043 25.852 13.9403 25.316C13.4843 24.772 13.2563 24.024 13.2563 23.072V17.84ZM21.2056 26V17.84H23.6056C24.3896 17.84 24.9656 18.032 25.3336 18.416C25.7096 18.792 25.8976 19.3 25.8976 19.94V20.204C25.8976 20.556 25.8176 20.868 25.6576 21.14C25.4976 21.412 25.2656 21.628 24.9616 21.788C25.3856 21.924 25.7056 22.148 25.9216 22.46C26.1456 22.764 26.2576 23.132 26.2576 23.564V23.828C26.2576 24.484 26.0656 25.012 25.6816 25.412C25.3056 25.804 24.7136 26 23.9056 26H21.2056ZM23.6056 18.8H22.2496V21.38H23.6056C24.0056 21.38 24.3056 21.28 24.5056 21.08C24.7136 20.872 24.8176 20.588 24.8176 20.228V19.94C24.8176 19.588 24.7136 19.312 24.5056 19.112C24.3056 18.904 24.0056 18.8 23.6056 18.8ZM23.9056 22.34H22.2496V25.052H23.9056C24.3296 25.052 24.6456 24.944 24.8536 24.728C25.0696 24.512 25.1776 24.212 25.1776 23.828V23.54C25.1776 23.172 25.0696 22.88 24.8536 22.664C24.6456 22.448 24.3296 22.34 23.9056 22.34Z" fill="#3755D7"/>
</svg>
